# xmcd
#
# Track frame offsets:
#	150
#	16710
#	35458
#	50812
#	65598
#	80165
#	98506
#	115536
#	131325
#	150116
#	168036
#	182696
#	197634
#	215176
#	233107
#	249849
#	267527
#	283822
#	301245
#
# Disc length: 4217
#
# Revision: 3
# Processed by: cddbd v1.5.1PL0 Copyright (c) Steve Scherf et al.
# Submitted via: CDex 1.40Release
# Normalized: r2:DSETVAR2,TDELIM( - )
#
DISCID=f9107713
DTITLE=Various Artist - Best of france 2002
DYEAR=0731
DGENRE=
TTITLE0=Jenifer - J'attends l'amour
TTITLE1=David charvet - Jusqu'au bout
TTITLE2=Calogero - En apesenteur
TTITLE3=Helen Segara - Donner tout
TTITLE4=Tina arena - Tu es toujours l
TTITLE5=Gregori Baquet - Comment lui dire
TTITLE6=Marc Lavoine - J'aurais voulu
TTITLE7=Florent pagny - L'air du temps
TTITLE8=Erwann - J'aurais du
TTITLE9=Mario - On se ressemble
TTITLE10=Curt close - Ton image
TTITLE11=Jessica - Si fragiles
TTITLE12=Patrice maktav - Anonyme
TTITLE13=Dalida par Cerrone - Laisser moi danser
TTITLE14=Claire solen - Et je crie
TTITLE15=L5 - Une etincelle
TTITLE16=Clemence et jhonny halliday - On a tous besoin d'amour
TTITLE17=Zazie - Adam and yves
TTITLE18=De palmas - Regarde moi bien en face
EXTD=YEAR: 0731
EXTT0=
EXTT1=
EXTT2=
EXTT3=
EXTT4=
EXTT5=
EXTT6=
EXTT7=
EXTT8=
EXTT9=
EXTT10=
EXTT11=
EXTT12=
EXTT13=
EXTT14=
EXTT15=
EXTT16=
EXTT17=
EXTT18=
PLAYORDER=
